<?xml version="1.0" encoding="utf-8"?>
<!-- Svg Vector Icons : http://www.onlinewebfonts.com/icon -->
<!DOCTYPE svg PUBLIC "-//W3C//DTD SVG 1.1//EN" "http://www.w3.org/Graphics/SVG/1.1/DTD/svg11.dtd">
<svg version="1.1" xmlns="http://www.w3.org/2000/svg" xmlns:xlink="http://www.w3.org/1999/xlink" x="0px" y="0px" viewBox="0 0 1000 1000" enable-background="new 0 0 1000 1000" xml:space="preserve">
<metadata> Svg Vector Icons : http://www.onlinewebfonts.com/icon </metadata>
<g><path d="M288.1,401.4l14.9-4.9v154c0,11.7,9.4,21.2,20.9,21.2c11.5,0,20.9-9.5,20.9-21.2V370.8c0-11.7-9.2-20.9-21.5-20.9c-5.1,0-10.1,1.4-15.4,3.1l-32.6,11.4c-9.2,3.2-14.5,10.1-14.5,18.9C260.8,396.6,274.5,406,288.1,401.4z"/><path d="M493.7,348.8c-53.6,0-94,48.4-94,113c0,64.8,39.3,111.9,93.5,111.9c53.4,0,93.8-48.4,93.8-113C586.8,395.8,547.7,348.8,493.7,348.8z M493.7,533.6c-33.2,0-51.1-37.3-51.1-72.9c0-35.7,17.4-71.8,50.5-71.8c33,0,50.8,37.3,50.8,72.9C543.9,497.5,526.7,533.6,493.7,533.6z"/><path d="M682.7,349.9c-5.1,0-10.1,1.4-15.4,3.1l-32.6,11.4c-9.2,3.2-14.5,10.1-14.5,18.9c0,13.3,13.7,22.7,27.4,18.1l14.9-4.9v154c0,11.7,9.4,21.2,20.9,21.2c11.5,0,20.9-9.5,20.9-21.2V370.8C704.2,359.1,695,349.9,682.7,349.9z"/><path d="M363.9,628.4c-53.6,0-94,48.4-94,113c0,64.8,39.3,111.9,93.5,111.9c53.5,0,93.8-48.4,93.8-113C457.1,675.5,417.9,628.4,363.9,628.4z M363.9,813.2c-33.2,0-51.1-37.3-51.1-72.9c0-35.7,17.4-71.8,50.5-71.8c33,0,50.8,37.3,50.8,72.9C414.1,776.2,396.5,813.2,363.9,813.2z"/><path d="M552.9,629.5c-5.1,0-10.1,1.4-15.4,3.1L504.8,644c-9.2,3.2-14.5,10.1-14.5,18.9c0,13.3,13.7,22.8,27.4,18.1l14.9-4.9v154c0,11.7,9.4,21.2,20.9,21.2c11.5,0,20.9-9.5,20.9-21.2V650.5C574.4,638.7,565.2,629.5,552.9,629.5z"/><path d="M682.7,629.5c-5.1,0-10.1,1.4-15.4,3.1L634.6,644c-9.2,3.2-14.5,10.1-14.5,18.9c0,13.3,13.7,22.8,27.4,18.1l14.9-4.9v154c0,11.7,9.4,21.2,20.9,21.2c11.5,0,20.9-9.5,20.9-21.2V650.5C704.2,638.7,695,629.5,682.7,629.5z"/><path d="M876.8,160.3L739.7,25.1c-9.9-9.7-22.9-15.1-36.8-15.1c0,0,0,0,0,0H160c-28.9,0-52.4,23.5-52.4,52.4v875.2c0,28.9,23.5,52.4,52.4,52.4h680c28.9,0,52.4-23.5,52.4-52.4v-740C892.4,183.7,886.7,170.1,876.8,160.3z M838.6,177.9H722.7l-0.1-114.4L838.6,177.9z M840,950.6H160c-7.2,0-13-5.8-13-13V62.4c0-7.2,5.8-13,13-13h523.2l0.2,148.2c0,10.9,8.8,19.7,19.7,19.7h150v720.3C853,944.8,847.2,950.6,840,950.6z"/></g>
</svg>