<?xml version="1.0" encoding="utf-8"?><!DOCTYPE svg PUBLIC "-//W3C//DTD SVG 1.1//EN" "http://www.w3.org/Graphics/SVG/1.1/DTD/svg11.dtd"><svg version="1.1" xmlns:dc="http://purl.org/dc/elements/1.1/" xmlns:cc="http://creativecommons.org/ns#" xmlns:svg="http://www.w3.org/2000/svg" xmlns:rdf="http://www.w3.org/1999/02/22-rdf-syntax-ns#" xmlns:inkscape="http://www.inkscape.org/namespaces/inkscape" xmlns:sodipodi="http://sodipodi.sourceforge.net/DTD/sodipodi-0.dtd" xmlns="http://www.w3.org/2000/svg" xmlns:xlink="http://www.w3.org/1999/xlink" x="0px" y="0px" viewBox="15.482 -3.129 69.037 100" enable-background="new 15.482 -3.129 69.037 100" xml:space="preserve"><path d="M57.06-3.129c-6.594,0-11.94,5.346-11.94,11.941s5.346,11.941,11.94,11.941
	c6.596,0,11.941-5.346,11.941-11.941S63.655-3.129,57.06-3.129z M57.06,2.842c3.298,0,5.971,2.673,5.971,5.971
	s-2.673,5.971-5.971,5.971c-3.297,0-5.971-2.673-5.971-5.971S53.763,2.842,57.06,2.842z"></path><rect x="30.998" y="-3.129" width="5.971" height="23.883"></rect><path d="M33.543,27.611v11.046L27.46,28.097l-5.187,2.985l5.075,8.807
	l-8.881-5.149l-2.985,5.187l10.15,5.858H15.594v5.97h10.785c0.54,5.149,4.364,9.293,9.329,10.374
	c-4.965,1.082-8.79,5.226-9.329,10.374H15.594v5.971h10.038l-10.15,5.859l2.985,5.187l8.881-5.149l-5.075,8.807l5.187,2.985
	l6.083-10.561v11.046h5.971V85.639c5.305-0.555,9.566-4.59,10.486-9.777c0.84,5.289,5.107,9.438,10.486,10.001v11.009h5.971V85.825
	l6.082,10.561l5.188-2.985l-5.075-8.807l8.882,5.149l2.985-5.187l-10.15-5.859h10.038v-5.971H73.622
	c-0.537-5.124-4.287-9.306-9.218-10.411c4.926-1.107,8.681-5.215,9.218-10.337h10.784v-5.97H74.368l10.15-5.859l-2.985-5.187
	l-8.882,5.15l5.075-8.807l-5.188-2.985l-6.082,10.561V27.835h-5.971v11.008c-5.29,0.554-9.513,4.538-10.449,9.703
	c-0.852-5.273-5.157-9.364-10.523-9.926V27.611H33.543z M50,52.501c0.744,4.863,4.396,8.746,9.143,9.814
	c-4.681,1.052-8.324,4.864-9.143,9.628c-0.755-4.879-4.438-8.771-9.217-9.814C45.5,61.101,49.181,57.294,50,52.501z"></path></svg>